<svg id="Objects" xmlns="http://www.w3.org/2000/svg" xmlns:xlink="http://www.w3.org/1999/xlink" width="275" height="275" viewBox="0 0 275 275">
  <defs>
    <style>
      .cls-1 {
        fill: #dfe1e5;
      }

      .cls-2 {
        fill: #4c9aff;
      }

      .cls-3 {
        fill: #ffe380;
      }

      .cls-4 {
        opacity: 0.5;
      }

      .cls-17, .cls-18, .cls-19, .cls-5 {
        fill: none;
        stroke-miterlimit: 10;
      }

      .cls-5 {
        stroke: #c1c7d0;
        stroke-linecap: round;
        stroke-width: 3.15px;
        stroke-dasharray: 0 9.46;
      }

      .cls-6 {
        fill: url(#linear-gradient);
      }

      .cls-7 {
        fill: #091e42;
        opacity: 0.1;
      }

      .cls-8 {
        fill: url(#linear-gradient-2);
      }

      .cls-9 {
        fill: #172b4d;
        opacity: 0.2;
      }

      .cls-10 {
        fill: url(#linear-gradient-3);
      }

      .cls-11 {
        clip-path: url(#clip-path);
      }

      .cls-12 {
        fill: #97a0af;
      }

      .cls-13 {
        clip-path: url(#clip-path-2);
      }

      .cls-14 {
        fill: #0065ff;
      }

      .cls-15 {
        clip-path: url(#clip-path-3);
      }

      .cls-16 {
        fill: #ffc400;
      }

      .cls-17 {
        stroke: #ff991f;
      }

      .cls-17, .cls-18, .cls-19 {
        stroke-width: 2px;
      }

      .cls-18 {
        stroke: #0049b0;
      }

      .cls-19 {
        stroke: #7a869a;
      }
    </style>
    <linearGradient id="linear-gradient" x1="72.48" y1="223.07" x2="155.33" y2="140.22" gradientUnits="userSpaceOnUse">
      <stop offset="0" stop-color="#8993a4"/>
      <stop offset="0.17" stop-color="#939dac"/>
      <stop offset="0.46" stop-color="#b0b6c1"/>
      <stop offset="0.83" stop-color="#dddfe3"/>
      <stop offset="0.85" stop-color="#dfe1e5"/>
    </linearGradient>
    <linearGradient id="linear-gradient-2" x1="136.77" y1="174.62" x2="241.16" y2="70.23" gradientUnits="userSpaceOnUse">
      <stop offset="0.16" stop-color="#0052cc"/>
      <stop offset="0.25" stop-color="#0059e0"/>
      <stop offset="0.36" stop-color="#0060f1"/>
      <stop offset="0.48" stop-color="#0064fc"/>
      <stop offset="0.62" stop-color="#0065ff"/>
      <stop offset="0.67" stop-color="#0568ff"/>
      <stop offset="0.72" stop-color="#1572ff"/>
      <stop offset="0.79" stop-color="#2e82ff"/>
      <stop offset="0.86" stop-color="#5198ff"/>
      <stop offset="0.93" stop-color="#7eb4ff"/>
      <stop offset="1" stop-color="#b2d4ff"/>
    </linearGradient>
    <linearGradient id="linear-gradient-3" x1="57.96" y1="107.16" x2="135.33" y2="29.8" gradientUnits="userSpaceOnUse">
      <stop offset="0.16" stop-color="#ff991f"/>
      <stop offset="0.21" stop-color="#ff9e1b"/>
      <stop offset="0.49" stop-color="#ffba07"/>
      <stop offset="0.66" stop-color="#ffc400"/>
      <stop offset="0.81" stop-color="#ffd340"/>
      <stop offset="0.94" stop-color="#ffdf6e"/>
      <stop offset="1" stop-color="#ffe380"/>
    </linearGradient>
    <clipPath id="clip-path">
      <circle class="cls-1" cx="178.34" cy="26.51" r="16.58"/>
    </clipPath>
    <clipPath id="clip-path-2">
      <circle class="cls-2" cx="43.78" cy="137.09" r="16.58"/>
    </clipPath>
    <clipPath id="clip-path-3">
      <circle class="cls-3" cx="215.87" cy="198.82" r="16.58"/>
    </clipPath>
  </defs>
  <g class="cls-4">
    <circle class="cls-5" cx="146.19" cy="122.84" r="102.41"/>
  </g>
  <g>
    <path class="cls-6" d="M139.08,140.86H88.74A40.79,40.79,0,0,0,48,181.65h0a40.79,40.79,0,0,0,40.79,40.79h2.31a24.59,24.59,0,0,1,23.76,17.68c0,.09,0,.18.07.26a.19.19,0,0,0,.37,0c0-.08,0-.17.07-.26a24.59,24.59,0,0,1,23.76-17.68h0a40.8,40.8,0,0,0,40.79-40.79h0A40.79,40.79,0,0,0,139.08,140.86Z"/>
    <path class="cls-7" d="M139.08,140.86h-40a51.41,51.41,0,0,0,50.31,40.84h2.91a31.33,31.33,0,0,1,25.45,13,40.67,40.67,0,0,0,2.14-13h0A40.79,40.79,0,0,0,139.08,140.86Z"/>
  </g>
  <path class="cls-8" d="M220.68,71H157.25a51.39,51.39,0,0,0-51.39,51.4h0a51.39,51.39,0,0,0,51.39,51.39h2.92A31,31,0,0,1,190.1,196.1l.09.33a.24.24,0,0,0,.46,0l.09-.33a31,31,0,0,1,29.94-22.28h0a51.39,51.39,0,0,0,51.39-51.39h0A51.39,51.39,0,0,0,220.68,71Z"/>
  <path class="cls-9" d="M150.35,77.94h0a38.08,38.08,0,0,0-.54-6.36,51.4,51.4,0,0,0-43.64,45.27,23.3,23.3,0,0,1,6.09-.82h0A38.09,38.09,0,0,0,150.35,77.94Z"/>
  <path class="cls-10" d="M120.15,30.39h-47A38.09,38.09,0,0,0,35.06,68.48h0a38.08,38.08,0,0,0,38.08,38.09H75.3a23,23,0,0,1,22.19,16.51l.06.25a.18.18,0,0,0,.34,0c0-.09,0-.17.07-.25a23,23,0,0,1,22.19-16.51h0a38.08,38.08,0,0,0,38.08-38.09h0A38.09,38.09,0,0,0,120.15,30.39Z"/>
  <g>
    <circle class="cls-1" cx="178.34" cy="26.51" r="16.58"/>
    <g class="cls-11">
      <path class="cls-12" d="M183.91,30.37a8.69,8.69,0,1,0-11.19,0,4.57,4.57,0,0,1,1.63,3.49h0A4.53,4.53,0,0,1,171.52,38a18.05,18.05,0,0,0-5.46,3.49,31.54,31.54,0,0,0,24.57,0c-2.56-1.1-4.06-2.91-5.44-3.48a4.56,4.56,0,0,1-2.86-4.22A4.48,4.48,0,0,1,183.91,30.37Z"/>
      <path class="cls-12" d="M169.85,35.16a1.25,1.25,0,0,1-1.14-1.84,6.84,6.84,0,0,0,.83-3.27V23.86a8.85,8.85,0,0,1,8.77-8.67,9,9,0,0,1,6.49,2.71,8.53,8.53,0,0,1,2.34,6v6.2a6.84,6.84,0,0,0,.83,3.27,1.25,1.25,0,0,1-1.15,1.84Z"/>
    </g>
  </g>
  <g>
    <circle class="cls-2" cx="43.78" cy="137.09" r="16.58"/>
    <g class="cls-13">
      <path class="cls-14" d="M49.06,140.77a8.68,8.68,0,1,0-11.18,0,4.57,4.57,0,0,1,1.63,3.49h0a4.55,4.55,0,0,1-2.83,4.21,18.1,18.1,0,0,0-5.47,3.49,31.65,31.65,0,0,0,24.57,0c-2.56-1.11-4.05-2.91-5.44-3.48a4.56,4.56,0,0,1-2.86-4.22A4.52,4.52,0,0,1,49.06,140.77Z"/>
    </g>
  </g>
  <g>
    <circle class="cls-3" cx="215.87" cy="198.82" r="16.58"/>
    <g class="cls-15">
      <path class="cls-16" d="M216.42,216.7a27.93,27.93,0,0,0,11.25-2.49,16.61,16.61,0,0,0-5.11-3.48,4.56,4.56,0,0,1-2.65-4.21h0a4.7,4.7,0,0,1,1.52-3.48,8.93,8.93,0,0,0,2.88-6.63c0-4.93-3.85-8.91-8.52-8.68-4.67-.23-8.52,3.75-8.52,8.68a8.93,8.93,0,0,0,2.88,6.63,4.7,4.7,0,0,1,1.52,3.48h0a4.56,4.56,0,0,1-2.65,4.21,16.61,16.61,0,0,0-5.11,3.48,27.93,27.93,0,0,0,11.25,2.49Z"/>
      <path class="cls-16" d="M223.74,207H207.87a.93.93,0,0,1-.93-.93v-10.2a9.06,9.06,0,0,1,2.6-6.27,8.86,8.86,0,0,1,15.13,6.27v10.2A.93.93,0,0,1,223.74,207Z"/>
    </g>
  </g>
  <line class="cls-17" x1="62.19" y1="57.23" x2="130.09" y2="57.23"/>
  <line class="cls-17" x1="62.19" y1="67.96" x2="130.09" y2="67.96"/>
  <line class="cls-17" x1="62.19" y1="78.69" x2="130.09" y2="78.69"/>
  <path class="cls-18" d="M138.55,108.12c10.22,0,10.22,8,20.44,8s10.21-8,20.43-8,10.22,8,20.43,8,10.22-8,20.44-8,10.22,8,20.44,8"/>
  <path class="cls-18" d="M138.55,118.84c10.22,0,10.22,8,20.44,8s10.21-8,20.43-8,10.22,8,20.43,8,10.22-8,20.44-8,10.22,8,20.44,8"/>
  <path class="cls-18" d="M138.55,129.57c10.22,0,10.22,8,20.44,8s10.21-8,20.43-8,10.22,8,20.43,8,10.22-8,20.44-8,10.22,8,20.44,8"/>
  <circle class="cls-19" cx="88.9" cy="184.75" r="6.88"/>
  <circle class="cls-19" cx="113.91" cy="184.75" r="6.88"/>
  <circle class="cls-19" cx="138.91" cy="184.75" r="6.88"/>
</svg>
